<svg id="Layer_1" height="512" viewBox="0 0 128 128" width="512" xmlns="http://www.w3.org/2000/svg" data-name="Layer 1"><path d="m30.317 6.5h82.337v97.308h-82.337z" fill="#c7cfd4"/><path d="m15.346 24.192h82.337v97.308h-82.337z" fill="#e1ebf0"/><g fill="#3c4176"><path d="m112.65 4.75h-31.483a1.75 1.75 0 0 0 0 3.5h29.733v93.81h-11.466v-26.56a1.75 1.75 0 0 0 -3.5 0v28.271.039s0 .025 0 .038v15.9h-78.834v-93.806h78.834v30.871a1.75 1.75 0 1 0 3.5 0v-32.621a1.751 1.751 0 0 0 -1.75-1.75h-65.614v-14.192h40.554a1.75 1.75 0 0 0 0-3.5h-42.304a1.75 1.75 0 0 0 -1.75 1.75v15.942h-13.224a1.751 1.751 0 0 0 -1.75 1.75v97.308a1.75 1.75 0 0 0 1.75 1.75h82.338a1.75 1.75 0 0 0 1.75-1.75v-15.94h13.216a1.75 1.75 0 0 0 1.75-1.75v-97.31a1.749 1.749 0 0 0 -1.75-1.75z"/><path d="m97.684 62.25a1.749 1.749 0 0 0 -1.75 1.75v4.625a1.75 1.75 0 0 0 3.5 0v-4.625a1.75 1.75 0 0 0 -1.75-1.75z"/><path d="m85.265 35.1h-21.265a1.75 1.75 0 0 0 0 3.5h21.265a1.75 1.75 0 0 0 0-3.5z"/><path d="m85.265 53.1h-57.5a1.75 1.75 0 1 0 0 3.5h57.5a1.75 1.75 0 0 0 0-3.5z"/><path d="m85.265 62.1h-57.5a1.75 1.75 0 1 0 0 3.5h57.5a1.75 1.75 0 0 0 0-3.5z"/><path d="m85.265 71.1h-57.5a1.75 1.75 0 0 0 0 3.5h57.5a1.75 1.75 0 0 0 0-3.5z"/><path d="m85.265 80.1h-57.5a1.75 1.75 0 0 0 0 3.5h57.5a1.75 1.75 0 0 0 0-3.5z"/><path d="m85.265 89.1h-57.5a1.75 1.75 0 0 0 0 3.5h57.5a1.75 1.75 0 0 0 0-3.5z"/><path d="m87.015 99.846a1.75 1.75 0 0 0 -1.75-1.75h-57.5a1.75 1.75 0 0 0 0 3.5h57.5a1.75 1.75 0 0 0 1.75-1.75z"/><path d="m38.53 107.1a1.75 1.75 0 0 0 0 3.5h35.97a1.75 1.75 0 0 0 0-3.5z"/></g></svg>