<svg height="512" viewBox="0 0 64 64" width="512" xmlns="http://www.w3.org/2000/svg"><g id="Project"><path d="m59.23 4.03-3.46-2a3 3 0 0 0 -4.1 1.1l-1.66 2.87h-39.01a5 5 0 0 0 -5 5v17h-1a3.009 3.009 0 0 0 -3 3v28a3.009 3.009 0 0 0 3 3h36a3.009 3.009 0 0 0 3-3v-11h11a5 5 0 0 0 5-5v-34.3l.33-.57a3 3 0 0 0 -1.1-4.1zm-51.23 6.97a3.009 3.009 0 0 1 3-3h37.86l-12.71 22h-7.04l-.17-.34a2.988 2.988 0 0 0 -2.68-1.66h-18.26zm29.32 21.94 4.36 2.53-5.33 4.2zm-1.89-.94-.29 2h-3.4a1 1 0 0 1 -.9-.56l-.72-1.44zm-31.43-1a1 1 0 0 1 1-1h21.26a1 1 0 0 1 .9.56l1.9 3.78a2.988 2.988 0 0 0 2.68 1.66h3.11l-.43 3h-30.42zm38 28a1 1 0 0 1 -1 1h-36a1 1 0 0 1 -1-1v-18h30.13l-.12.86a1 1 0 0 0 1.61.93l2.27-1.79h4.11zm0-20h-1.57l1.57-1.24zm1.1-5.03-5.2-3 10-17.32 5.2 3zm14.9 9.03a3.009 3.009 0 0 1 -3 3h-11v-9a2.988 2.988 0 0 0 -.1-.73l.18-.14v-.01a.842.842 0 0 0 .25-.28l11-19.05 2.67-4.63zm.6-35.87-4.5 7.79-5.2-3 4.5-7.79a1.026 1.026 0 0 1 .61-.47 1.007 1.007 0 0 1 .76.1l3.46 2a1.01 1.01 0 0 1 .37 1.37z"/><path d="m10 12h34v2h-34z"/><path d="m10 16h32v2h-32z"/><path d="m10 20h30v2h-30z"/><path d="m10 24h28v2h-28z"/><path d="m7 37h3a1 1 0 0 0 1-1v-3a1 1 0 0 0 -1-1h-3a1 1 0 0 0 -1 1v3a1 1 0 0 0 1 1zm1-3h1v1h-1z"/><path d="m14 37h3a1 1 0 0 0 1-1v-3a1 1 0 0 0 -1-1h-3a1 1 0 0 0 -1 1v3a1 1 0 0 0 1 1zm1-3h1v1h-1z"/><path d="m21 37h3a1 1 0 0 0 1-1v-3a1 1 0 0 0 -1-1h-3a1 1 0 0 0 -1 1v3a1 1 0 0 0 1 1zm1-3h1v1h-1z"/><path d="m23 43c-2.981 0-6 1.718-6 5a5.914 5.914 0 0 0 2.2 4.846c.6.56.8.79.8 1.154a1 1 0 0 0 1 1h4a1 1 0 0 0 1-1c0-.364.208-.594.8-1.154a5.914 5.914 0 0 0 2.2-4.846c0-3.282-3.019-5-6-5zm2.432 8.391a4.521 4.521 0 0 0 -1.249 1.609h-2.366a4.521 4.521 0 0 0 -1.249-1.609 3.991 3.991 0 0 1 -1.568-3.391c0-2.062 2.073-3 4-3s4 .938 4 3a3.991 3.991 0 0 1 -1.568 3.391z"/><path d="m20 56h6v2h-6z"/><path d="m31 48h4v2h-4z"/><path d="m29.66 43h4.001v2h-4.001z" transform="matrix(.866 -.5 .5 .866 -17.756 21.72)"/><path d="m11 48h4v2h-4z"/><path d="m13.34 42h2v4.001h-2z" transform="matrix(.5 -.866 .866 .5 -30.936 34.423)"/></g></svg>