<svg id="Capa_1" enable-background="new 0 0 510 510" height="512" viewBox="0 0 510 510" width="512" xmlns="http://www.w3.org/2000/svg" xmlns:xlink="http://www.w3.org/1999/xlink"><linearGradient id="SVGID_1_" gradientUnits="userSpaceOnUse" x1="169.942" x2="412.097" y1="190.211" y2="432.366"><stop offset="0" stop-color="#ffce47"/><stop offset="1" stop-color="#ff9356"/></linearGradient><linearGradient id="lg1"><stop offset="0" stop-color="#ff9356" stop-opacity="0"/><stop offset="1" stop-color="#ff4181"/></linearGradient><linearGradient id="SVGID_2_" gradientUnits="userSpaceOnUse" x1="279.192" x2="279.192" xlink:href="#lg1" y1="475.401" y2="506.887"/><linearGradient id="SVGID_3_" gradientUnits="userSpaceOnUse" x1="428.545" x2="372.511" xlink:href="#lg1" y1="284.947" y2="275.059"/><linearGradient id="SVGID_4_" gradientUnits="userSpaceOnUse" x1="121.559" x2="363.714" y1="174.289" y2="416.444"><stop offset="0" stop-color="#ffe0ea"/><stop offset="1" stop-color="#ff80ab"/></linearGradient><linearGradient id="lg2"><stop offset="0" stop-color="#ff4181" stop-opacity="0"/><stop offset="1" stop-color="#ff4181"/></linearGradient><linearGradient id="SVGID_5_" gradientUnits="userSpaceOnUse" x1="230.808" x2="230.808" xlink:href="#lg2" y1="471.006" y2="493.529"/><linearGradient id="SVGID_6_" gradientUnits="userSpaceOnUse" x1="249.582" x2="247.385" xlink:href="#lg2" y1="493.93" y2="447.784"/><linearGradient id="lg3"><stop offset="0" stop-color="#fff5d9"/><stop offset="1" stop-color="#ffce47"/></linearGradient><linearGradient id="SVGID_7_" gradientUnits="userSpaceOnUse" x1="176.945" x2="425.802" xlink:href="#lg3" y1="151.502" y2="492.65"/><linearGradient id="lg4"><stop offset="0" stop-color="#ff9356" stop-opacity="0"/><stop offset="1" stop-color="#ff755c"/></linearGradient><linearGradient id="SVGID_8_" gradientUnits="userSpaceOnUse" x1="299.432" x2="101.928" xlink:href="#lg4" y1="145.701" y2="-51.804"/><linearGradient id="SVGID_9_" gradientUnits="userSpaceOnUse" x1="141.607" x2="201.936" xlink:href="#lg3" y1="88.645" y2="148.975"/><linearGradient id="SVGID_10_" gradientUnits="userSpaceOnUse" x1="255.529" x2="255.529" xlink:href="#lg4" y1="431.205" y2="472.067"/><linearGradient id="SVGID_11_" gradientUnits="userSpaceOnUse" x1="340.669" x2="257.526" xlink:href="#lg4" y1="99.19" y2="14.842"/><linearGradient id="SVGID_12_" gradientUnits="userSpaceOnUse" x1="343.449" x2="299.619" xlink:href="#lg4" y1="125.031" y2="111.927"/><linearGradient id="SVGID_13_" gradientUnits="userSpaceOnUse" x1="409.888" x2="326.294" xlink:href="#lg4" y1="172.052" y2="140.873"/><linearGradient id="SVGID_14_" gradientUnits="userSpaceOnUse" x1="312.889" x2="383.699" y1="93.385" y2="93.385"><stop offset="0" stop-color="#6fa953"/><stop offset="1" stop-color="#43765a"/></linearGradient><g><g><g><path d="m152.773 510h252.837c15.207 0 27.535-12.328 27.535-27.535v-366.009c0-15.207-12.328-27.535-27.535-27.535h-252.837c-15.207 0-27.535 12.328-27.535 27.535v366.009c0 15.207 12.328 27.535 27.535 27.535z" fill="url(#SVGID_1_)"/><path d="m125.238 421.014v61.451c0 15.207 12.328 27.535 27.535 27.535h252.837c15.207 0 27.535-12.328 27.535-27.535v-61.451z" fill="url(#SVGID_2_)"/><path d="m405.61 88.921h-22.389v380.437h49.924v-352.902c0-15.208-12.328-27.535-27.535-27.535z" fill="url(#SVGID_3_)"/></g><g><path d="m104.39 494.079h252.837c15.207 0 27.535-12.328 27.535-27.535v-366.01c0-15.207-12.328-27.535-27.535-27.535h-252.837c-15.207 0-27.535 12.328-27.535 27.535v366.009c0 15.208 12.327 27.536 27.535 27.536z" fill="url(#SVGID_4_)"/><path d="m76.855 417.609v48.935c0 15.207 12.328 27.535 27.535 27.535h252.837c15.207 0 27.535-12.328 27.535-27.535v-48.935z" fill="url(#SVGID_5_)"/><path d="m111.516 463.62 30.459 30.459h215.251c15.207 0 27.535-12.328 27.535-27.535v-2.924z" fill="url(#SVGID_6_)"/></g><g><path d="m383.213 49.102h-184.9c-8.065 0-15.799 3.204-21.502 8.906l-66.329 66.329c-5.703 5.703-8.906 13.437-8.906 21.502v297.248c0 14.449 11.822 26.27 26.27 26.27h255.375c14.444 0 26.262-11.818 26.262-26.262v-367.723c0-14.448-11.822-26.27-26.27-26.27z" fill="url(#SVGID_7_)"/><path d="m265.067 155.918h-104.832c-9.941 0-17.999 8.058-17.999 17.999v77.871c0 9.941 8.058 17.999 17.999 17.999h104.832c9.941 0 17.999-8.058 17.999-17.999v-77.871c0-9.941-8.058-17.999-17.999-17.999z" fill="#fff"/><g><g fill="#ff9356"><g><path d="m214.016 317.173h-63.371c-4.644 0-8.408-3.765-8.408-8.408v-16.817c0-4.644 3.765-8.408 8.408-8.408h63.371c4.644 0 8.408 3.765 8.408 8.408v16.817c.001 4.643-3.764 8.408-8.408 8.408z"/><path d="m360.413 317.173h-110.637c-4.644 0-8.408-3.765-8.408-8.408v-16.817c0-4.644 3.765-8.408 8.408-8.408h110.637c4.644 0 8.408 3.765 8.408 8.408v16.817c.001 4.643-3.764 8.408-8.408 8.408z"/></g><g><path d="m297.042 367.831h63.371c4.644 0 8.408-3.765 8.408-8.408v-16.817c0-4.644-3.765-8.408-8.408-8.408h-63.371c-4.644 0-8.408 3.765-8.408 8.408v16.817c-.001 4.643 3.764 8.408 8.408 8.408z"/><path d="m150.645 367.831h110.637c4.644 0 8.408-3.765 8.408-8.408v-16.817c0-4.644-3.765-8.408-8.408-8.408h-110.637c-4.644 0-8.408 3.765-8.408 8.408v16.817c-.001 4.643 3.764 8.408 8.408 8.408z"/></g><g><path d="m214.016 418.489h-63.371c-4.644 0-8.408-3.765-8.408-8.408v-16.817c0-4.644 3.765-8.408 8.408-8.408h63.371c4.644 0 8.408 3.765 8.408 8.408v16.817c.001 4.644-3.764 8.408-8.408 8.408z"/><path d="m360.413 418.489h-110.637c-4.644 0-8.408-3.765-8.408-8.408v-16.817c0-4.644 3.765-8.408 8.408-8.408h110.637c4.644 0 8.408 3.765 8.408 8.408v16.817c.001 4.644-3.764 8.408-8.408 8.408z"/></g></g></g><path d="m409.483 443.096v-367.724c0-14.448-11.822-26.27-26.27-26.27h-184.9c-8.065 0-15.799 3.204-21.502 8.906l-66.329 66.329c-4.231 4.231-7.082 9.581-8.274 15.354l307.019 307.019c.164-1.182.256-2.388.256-3.614z" fill="url(#SVGID_8_)"/><path d="m102.476 138.462c-.097.422-.187.833-.269 1.23h80.465c5.698 0 10.316-4.619 10.316-10.316v-79.795c-.629.112-1.29.243-1.971.394-5.998 1.327-11.467 4.411-15.811 8.755l-63.99 63.99c-4.326 4.326-7.364 9.781-8.74 15.742z" fill="url(#SVGID_9_)"/><path d="m101.576 417.609v25.479c0 14.449 11.822 26.27 26.27 26.27h255.375c14.444 0 26.262-11.818 26.262-26.262v-25.487z" fill="url(#SVGID_10_)"/></g></g><path d="m409.483 89.197v-13.825c0-14.449-11.822-26.27-26.27-26.27h-93.97c.13.13.274.273.431.429l-1.337-.429 70.436 70.436v2.394c-.08-.055-.161-.106-.242-.159l-35.209-35.209c-2.422-3.691-6.591-6.133-11.335-6.133-7.487 0-13.556 6.069-13.556 13.556v48.321c0 13.287 5.839 25.37 15.123 33.577l119.593 119.593v-179.022c-.002-13.893-10.292-25.376-23.664-27.259z" fill="url(#SVGID_11_)"/><path d="m310.657 80.502c.434-.054.877-.072 1.328-.072 4.745 0 8.911 2.44 11.333 6.136l35.209 35.209c.081.054.163.099.244.154v21.111c0 9.381-7.799 16.963-17.252 16.61-8.992-.343-18.689-8.016-18.689-17.017v-48.648c0-7.012-5.341-12.787-12.173-13.483z" fill="url(#SVGID_12_)"/><g><path d="m409.483 89.197v-13.825c0-14.295-11.574-26.011-25.814-26.258v91.713c0 24.393-20.077 44.184-44.573 43.719-11.026-.209-20.985-4.583-28.528-11.573.952 1.015 1.943 1.991 2.984 2.912l119.593 119.593v-179.022c0-13.893-10.29-25.376-23.662-27.259z" fill="url(#SVGID_13_)"/></g><path d="m337.685 0h-1.151c-26.577 0-48.198 21.622-48.198 48.199v.904h27.112v-.904c0-11.627 9.459-21.087 21.087-21.087h1.151c11.646 0 21.087 9.441 21.087 21.087v94.843c0 9.375-7.805 16.961-17.257 16.603-8.991-.34-15.974-8.014-15.974-17.011v-48.647c0-7.487-6.069-13.556-13.556-13.556s-13.556 6.069-13.556 13.556v48.321c0 23.944 18.942 43.998 42.881 44.453 24.496.465 44.573-19.326 44.573-43.719v-94.843c0-26.62-21.579-48.199-48.199-48.199z" fill="url(#SVGID_14_)"/></g></svg>