<svg id="Capa_1" enable-background="new 0 0 512 512" height="512" viewBox="0 0 512 512" width="512" xmlns="http://www.w3.org/2000/svg"><g><path d="m427.18 512h-362.355c-5.69 0-10.302-4.612-10.302-10.302v-491.396c0-5.69 4.612-10.302 10.302-10.302h362.355c5.69 0 10.302 4.612 10.302 10.302v491.396c0 5.69-4.612 10.302-10.302 10.302z" fill="#d8e2f1"/><path d="m416.669 0v512h10.511c5.69 0 10.302-4.612 10.302-10.302v-491.396c0-5.69-4.612-10.302-10.302-10.302z" fill="#b9cbea"/><path d="m141.937 64.583v-23.02c0-3.414 2.767-6.181 6.181-6.181h195.768c3.414 0 6.181 2.767 6.181 6.181v23.02c0 3.414-2.767 6.181-6.181 6.181h-195.767c-3.414 0-6.182-2.767-6.182-6.181z" fill="#dd5790"/><g><g><path d="m383.368 203.369h-195.642c-4.267 0-7.726-3.459-7.726-7.726s3.459-7.726 7.726-7.726h195.642c4.267 0 7.726 3.459 7.726 7.726s-3.459 7.726-7.726 7.726z" fill="#5766cb"/></g><g><path d="m150.263 203.369h-41.626c-4.267 0-7.726-3.459-7.726-7.726s3.459-7.726 7.726-7.726h41.626c4.267 0 7.726 3.459 7.726 7.726s-3.459 7.726-7.726 7.726z" fill="#5766cb"/></g><g><path d="m383.368 240.832h-195.642c-4.267 0-7.726-3.459-7.726-7.726s3.459-7.726 7.726-7.726h195.642c4.267 0 7.726 3.459 7.726 7.726s-3.459 7.726-7.726 7.726z" fill="#5766cb"/></g><g><path d="m150.263 240.832h-41.626c-4.267 0-7.726-3.459-7.726-7.726s3.459-7.726 7.726-7.726h41.626c4.267 0 7.726 3.459 7.726 7.726s-3.459 7.726-7.726 7.726z" fill="#5766cb"/></g></g><g><g><path d="m383.368 128.442h-243.512c-4.267 0-7.726-3.459-7.726-7.726s3.459-7.726 7.726-7.726h243.512c4.267 0 7.726 3.459 7.726 7.726.001 4.266-3.459 7.726-7.726 7.726z" fill="#a2b9e2"/></g><g><path d="m383.368 165.905h-274.731c-4.267 0-7.726-3.459-7.726-7.726s3.459-7.726 7.726-7.726h274.731c4.267 0 7.726 3.459 7.726 7.726s-3.459 7.726-7.726 7.726z" fill="#a2b9e2"/></g></g><g><path d="m289.71 315.759h-181.073c-4.267 0-7.726-3.459-7.726-7.726s3.459-7.726 7.726-7.726h181.073c4.267 0 7.726 3.459 7.726 7.726s-3.459 7.726-7.726 7.726z" fill="#a2b9e2"/></g><g><path d="m368.636 278.295h-228.78c-4.267 0-7.726-3.459-7.726-7.726s3.459-7.726 7.726-7.726h228.78c4.267 0 7.726 3.459 7.726 7.726s-3.459 7.726-7.726 7.726z" fill="#a2b9e2"/></g><g><path d="m241.84 485.385h-83.252c-4.267 0-7.726-3.459-7.726-7.726s3.459-7.726 7.726-7.726h83.252c4.267 0 7.726 3.459 7.726 7.726s-3.459 7.726-7.726 7.726z" fill="#5766cb"/></g><g><path d="m108.637 480.572c-1.977 0-3.955-.755-5.463-2.263-3.018-3.017-3.018-7.909 0-10.927l56.975-56.975c3.749-3.749 9.337-4.859 14.234-2.831 4.897 2.029 8.062 6.765 8.062 12.066v13.737l9.704-9.704c3.749-3.749 9.336-4.859 14.233-2.832 3.329 1.379 5.858 4.01 7.136 7.218l23.51-23.509c3.017-3.017 7.909-3.017 10.927 0s3.018 7.909 0 10.927l-26.667 26.667c-3.748 3.749-9.335 4.861-14.233 2.831-3.329-1.379-5.858-4.01-7.136-7.218l-10.631 10.631c-3.748 3.749-9.335 4.861-14.233 2.831-4.897-2.029-8.062-6.765-8.062-12.066v-13.737l-52.893 52.891c-1.508 1.508-3.486 2.263-5.463 2.263z" fill="#dd5790"/></g><g><path d="m450.696 127.789-11.931-4.343c-5.346-1.946-11.258.811-13.204 6.157l-10.714 29.435 31.293 11.39 10.714-29.435c1.945-5.347-.812-11.258-6.158-13.204z" fill="#ffd064"/><path d="m340.377 454.698-17.702 17.093c-2.47 2.385-6.601.881-6.96-2.533l-2.574-24.473c-.992-9.435.178-18.971 3.423-27.886l42.407-116.512 39.116 14.237-42.407 116.512c-3.245 8.914-8.478 16.972-15.303 23.562z" fill="#734a9b"/><path d="m383.418 309.285-42.407 116.512c-3.245 8.915-8.478 16.973-15.302 23.562l-10.973 10.595.978 9.303c.359 3.414 4.491 4.918 6.96 2.533l17.702-17.093c6.824-6.59 12.058-14.648 15.302-23.562l42.407-116.512z" fill="#5e3881"/><path d="m414.808 159.024 31.371 11.418c2.139.778 3.241 3.143 2.463 5.282l-39.166 107.607-39.116-14.237 39.166-107.607c.778-2.139 3.143-3.241 5.282-2.463z" fill="#734a9b"/><path d="m435.383 166.513-40.575 111.48 14.668 5.339 39.166-107.607c.778-2.139-.324-4.503-2.463-5.282z" fill="#5e3881"/><path d="m363.41 275.209h41.626v33.301h-41.626z" fill="#ffe07d" transform="matrix(.94 .342 -.342 .94 122.993 -113.811)"/><path d="m379.797 288.503h33.301v15.61h-33.301z" fill="#ffd064" transform="matrix(.342 -.94 .94 .342 -17.585 567.503)"/></g></g></svg>