<?xml version="1.0" encoding="UTF-8"?>
<svg viewBox="0 0 48 48" xmlns="http://www.w3.org/2000/svg" xmlns:xlink="http://www.w3.org/1999/xlink">
 <defs>
  <linearGradient id="a">
   <stop offset="0"/>
   <stop stop-opacity="0" offset="1"/>
  </linearGradient>
  <linearGradient id="n" x2="0" y1="-150.7" y2="327.66" gradientUnits="userSpaceOnUse">
   <stop stop-opacity="0" offset="0"/>
   <stop offset=".5"/>
   <stop stop-opacity="0" offset="1"/>
  </linearGradient>
  <linearGradient id="t" x1="43.237" x2="45.319" y1="17.376" y2="22.251" gradientUnits="userSpaceOnUse">
   <stop stop-color="#ffd1d1" offset="0"/>
   <stop stop-color="#ff1d1d" offset=".5"/>
   <stop stop-color="#6f0000" offset="1"/>
  </linearGradient>
  <linearGradient id="s" x1="40.331" x2="42.018" y1="19.812" y2="22.625" gradientUnits="userSpaceOnUse">
   <stop stop-color="#c1c1c1" offset="0"/>
   <stop stop-color="#acacac" offset="1"/>
  </linearGradient>
  <linearGradient id="r" x1="19.893" x2="19.689" y1="31.172" y2="30.828" gradientUnits="userSpaceOnUse">
   <stop offset="0"/>
   <stop stop-color="#c9c9c9" offset="1"/>
  </linearGradient>
  <linearGradient id="q" x1="27.366" x2="31.336" y1="26.58" y2="30.558" gradientTransform="matrix(-1 0 0 1 48.184 -6.2207e-15)" gradientUnits="userSpaceOnUse">
   <stop stop-color="#8a8a8a" offset="0"/>
   <stop stop-color="#484848" offset="1"/>
  </linearGradient>
  <linearGradient id="p" x1="30.656" x2="33.219" y1="34" y2="31.062" gradientTransform="matrix(-1.3346 0 0 1.2913 55.158 -7.4607)" gradientUnits="userSpaceOnUse">
   <stop stop-color="#7d7d7d" offset="0"/>
   <stop stop-color="#b1b1b1" offset=".5"/>
   <stop stop-color="#686868" offset="1"/>
  </linearGradient>
  <linearGradient id="o" x1="18.293" x2="17.501" y1="13.602" y2="25.743" gradientTransform="matrix(-1 0 0 1 44.178 -7.0451e-16)" gradientUnits="userSpaceOnUse">
   <stop stop-color="#fff" offset="0"/>
   <stop stop-color="#fff" stop-opacity=".21905" offset=".5"/>
   <stop stop-color="#fff" offset="1"/>
  </linearGradient>
  <radialGradient id="m" cx="11.898" cy="4.5256" r="36.554" gradientUnits="userSpaceOnUse">
   <stop stop-color="#a3a3a3" offset="0"/>
   <stop stop-color="#4c4c4c" offset="1"/>
  </radialGradient>
  <radialGradient id="l" cx="32.625" cy="37.207" r="83.283" gradientUnits="userSpaceOnUse">
   <stop stop-color="#fafafa" offset="0"/>
   <stop stop-color="#bbb" offset="1"/>
  </radialGradient>
  <radialGradient id="k" cx="11.239" cy="8.1525" r="36.948" gradientUnits="userSpaceOnUse">
   <stop stop-color="#fff" offset="0"/>
   <stop stop-color="#f8f8f8" offset="1"/>
  </radialGradient>
  <radialGradient id="j" cx="9.4125" cy="30.297" r="1.2073" gradientUnits="userSpaceOnUse">
   <stop stop-color="#f0f0f0" offset="0"/>
   <stop stop-color="#9a9a9a" offset="1"/>
  </radialGradient>
  <radialGradient id="i" cx="9.4125" cy="18.811" r="1.2076" gradientUnits="userSpaceOnUse">
   <stop stop-color="#f0f0f0" offset="0"/>
   <stop stop-color="#9a9a9a" offset="1"/>
  </radialGradient>
  <radialGradient id="f" cx="29.053" cy="27.641" r="3.2408" gradientTransform="matrix(2.9236 -1.2362e-16 8.5824e-17 2.0297 -61.555 -27.884)" gradientUnits="userSpaceOnUse">
   <stop stop-color="#e7e2b8" offset="0"/>
   <stop stop-color="#e7e2b8" stop-opacity="0" offset="1"/>
  </radialGradient>
  <radialGradient id="e" cx="18.241" cy="21.818" r="8.3085" gradientTransform="matrix(-1 0 0 1 43.352 1.0324e-15)" gradientUnits="userSpaceOnUse">
   <stop stop-color="#729fcf" stop-opacity=".20784" offset="0"/>
   <stop stop-color="#729fcf" stop-opacity=".67619" offset="1"/>
  </radialGradient>
  <radialGradient id="d" cx="15.414" cy="13.078" r="6.6562" gradientTransform="matrix(2.593 -7.7469e-24 -5.7144e-24 2.2521 -25.06 -18.941)" gradientUnits="userSpaceOnUse">
   <stop stop-color="#fff" offset="0"/>
   <stop stop-color="#fff" stop-opacity=".24762" offset="1"/>
  </radialGradient>
  <radialGradient id="b" cx="605.71" cy="486.65" r="117.14" gradientTransform="matrix(-2.7744 0 0 1.9697 112.76 -872.89)" gradientUnits="userSpaceOnUse" xlink:href="#a"/>
  <radialGradient id="c" cx="605.71" cy="486.65" r="117.14" gradientTransform="matrix(2.7744 0 0 1.9697 -1891.6 -872.89)" gradientUnits="userSpaceOnUse" xlink:href="#a"/>
  <radialGradient id="h" cx="24.13" cy="37.968" r="16.529" gradientTransform="matrix(1 0 0 .23797 -1.5912e-15 28.933)" gradientUnits="userSpaceOnUse" xlink:href="#a"/>
  <radialGradient id="g" cx="23.562" cy="40.438" r="19.562" gradientTransform="matrix(1 0 0 .34824 -2.3965e-14 26.355)" gradientUnits="userSpaceOnUse" xlink:href="#a"/>
 </defs>
 <g transform="matrix(.021652 0 0 .014857 43.008 42.685)">
  <path d="m-1559.3-150.7h1339.6v478.36h-1339.6z" fill="url(#n)" opacity=".40206"/>
  <path d="m-219.62-150.68v478.33c142.87 0.90045 345.4-107.17 345.4-239.2s-159.44-239.13-345.4-239.13z" fill="url(#c)" opacity=".40206"/>
  <path d="m-1559.3-150.68v478.33c-142.87 0.90045-345.4-107.17-345.4-239.2s159.44-239.13 345.4-239.13z" fill="url(#b)" opacity=".40206"/>
 </g>
 <path d="m11.506 5.4943v37.907" fill="none" stroke="#000" stroke-opacity=".01754" stroke-width=".98855"/>
 <path transform="matrix(1.0036 0 0 1.0019 -.12722 -.15353)" d="m7.7485 3.6464h32.585a1.1449 1.1468 0 0 1 1.1449 1.1468v38.627a1.1449 1.1468 0 0 1 -1.1449 1.1468h-32.585a1.1449 1.1468 0 0 1 -1.1449 -1.1468v-38.627a1.1449 1.1468 0 0 1 1.1449 -1.1468" display="block" fill="url(#l)" stroke="url(#m)" stroke-linecap="round" stroke-linejoin="round" stroke-width=".99724"/>
 <path transform="matrix(1.0036 0 0 1.0019 -.12722 -.15353)" d="m7.81457,4.58395h32.47885a.14852,.14876 0 0,1 .14852.14876v38.64886a.14852,.14876 0 0,1 -.14852.14876h-32.47885a.14852,.14876 0 0,1 -.14852-.14876v-38.64886a.14852,.14876 0 0,1 .14852-.14876" display="block" fill="none" stroke="url(#k)" stroke-linecap="round" stroke-linejoin="round" stroke-width=".99724"/>
 <g transform="translate(.64645 -.037989)">
  <g transform="matrix(.2297 0 0 .2297 4.9671 4.245)" fill="#fff">
   <path d="m23.428 113.07c0 1.973-1.6 3.572-3.573 3.572s-3.573-1.6-3.573-3.572 1.6-3.573 3.573-3.573 3.573 1.6 3.573 3.573z"/>
   <path d="m23.428 63.07c0 1.973-1.6 3.573-3.573 3.573s-3.573-1.6-3.573-3.573 1.6-3.573 3.573-3.573 3.573 1.6 3.573 3.573z"/>
  </g>
  <path d="m9.99501,29.95233c0,.4532-.36752.8205-.82073.8205s-.82073-.36752-.82073-.8205 .36752-.82073.82073-.82073 .82073.36753.82073.82073z" fill="url(#j)"/>
  <path d="m9.99501,18.46718c0,.4532-.36752.82073-.82073.82073s-.82073-.36752-.82073-.82073 .36752-.82073.82073-.82073 .82073.36753.82073.82073z" fill="url(#i)"/>
 </g>
 <path d="m12.5 5.0205v38.018" fill="none" stroke="#fff" stroke-opacity=".20468"/>
 <g transform="matrix(.90909 0 0 1 2.3636 0)" fill="#9b9b9b" fill-opacity=".54971">
  <path d="m15.152 9h21.697a0.15156 0.065391 0 0 1 0.15156 0.06539v0.86922a0.15156 0.065391 0 0 1 -0.15156 0.06539h-21.697a0.15156 0.065391 0 0 1 -0.15156 -0.06539v-0.86922a0.15156 0.065391 0 0 1 0.15156 -0.06539" display="block"/>
  <path d="m15.152 11h21.697a0.15156 0.065391 0 0 1 0.15156 0.06539v0.86922a0.15156 0.065391 0 0 1 -0.15156 0.06539h-21.697a0.15156 0.065391 0 0 1 -0.15156 -0.06539v-0.86922a0.15156 0.065391 0 0 1 0.15156 -0.06539" display="block"/>
  <path d="m15.152 13h21.697a0.15156 0.065391 0 0 1 0.15156 0.06539v0.86922a0.15156 0.065391 0 0 1 -0.15156 0.06539h-21.697a0.15156 0.065391 0 0 1 -0.15156 -0.06539v-0.86922a0.15156 0.065391 0 0 1 0.15156 -0.06539" display="block"/>
  <path d="m15.152 15h21.697a0.15156 0.065391 0 0 1 0.15156 0.06539v0.86922a0.15156 0.065391 0 0 1 -0.15156 0.06539h-21.697a0.15156 0.065391 0 0 1 -0.15156 -0.06539v-0.86922a0.15156 0.065391 0 0 1 0.15156 -0.06539" display="block"/>
  <path d="m15.152 17h21.697a0.15156 0.065391 0 0 1 0.15156 0.06539v0.86922a0.15156 0.065391 0 0 1 -0.15156 0.06539h-21.697a0.15156 0.065391 0 0 1 -0.15156 -0.06539v-0.86922a0.15156 0.065391 0 0 1 0.15156 -0.06539" display="block"/>
  <path d="m15.152 19h21.697a0.15156 0.065391 0 0 1 0.15156 0.06539v0.86922a0.15156 0.065391 0 0 1 -0.15156 0.06539h-21.697a0.15156 0.065391 0 0 1 -0.15156 -0.06539v-0.86922a0.15156 0.065391 0 0 1 0.15156 -0.06539" display="block"/>
  <path d="m15.152 21h21.697a0.15156 0.065391 0 0 1 0.15156 0.06539v0.86922a0.15156 0.065391 0 0 1 -0.15156 0.06539h-21.697a0.15156 0.065391 0 0 1 -0.15156 -0.06539v-0.86922a0.15156 0.065391 0 0 1 0.15156 -0.06539" display="block"/>
  <path d="m15.152 23h21.697a0.15156 0.065391 0 0 1 0.15156 0.06539v0.86922a0.15156 0.065391 0 0 1 -0.15156 0.06539h-21.697a0.15156 0.065391 0 0 1 -0.15156 -0.06539v-0.86922a0.15156 0.065391 0 0 1 0.15156 -0.06539" display="block"/>
  <path d="m15.068 25h9.7636a0.068204 0.065391 0 0 1 0.0682 0.06539v0.86922a0.068204 0.065391 0 0 1 -0.0682 0.06539h-9.7636a0.068204 0.065391 0 0 1 -0.0682 -0.06539v-0.86922a0.068204 0.065391 0 0 1 0.0682 -0.06539" display="block"/>
  <path d="m15.152 29h21.697a0.15156 0.065391 0 0 1 0.15156 0.06539v0.86922a0.15156 0.065391 0 0 1 -0.15156 0.06539h-21.697a0.15156 0.065391 0 0 1 -0.15156 -0.06539v-0.86922a0.15156 0.065391 0 0 1 0.15156 -0.06539" display="block"/>
  <path d="m15.152 31h21.697a0.15156 0.065391 0 0 1 0.15156 0.06539v0.86922a0.15156 0.065391 0 0 1 -0.15156 0.06539h-21.697a0.15156 0.065391 0 0 1 -0.15156 -0.06539v-0.86922a0.15156 0.065391 0 0 1 0.15156 -0.06539" display="block"/>
  <path d="m15.152 33h21.697a0.15156 0.065391 0 0 1 0.15156 0.06539v0.86922a0.15156 0.065391 0 0 1 -0.15156 0.06539h-21.697a0.15156 0.065391 0 0 1 -0.15156 -0.06539v-0.86922a0.15156 0.065391 0 0 1 0.15156 -0.06539" display="block"/>
  <path d="m15.152 35h21.697a0.15156 0.065391 0 0 1 0.15156 0.06539v0.86922a0.15156 0.065391 0 0 1 -0.15156 0.06539h-21.697a0.15156 0.065391 0 0 1 -0.15156 -0.06539v-0.86922a0.15156 0.065391 0 0 1 0.15156 -0.06539" display="block"/>
  <path d="m15.106 37h15.188a0.1061 0.065391 0 0 1 0.1061 0.06539v0.86922a0.1061 0.065391 0 0 1 -0.1061 0.06539h-15.188a0.1061 0.065391 0 0 1 -0.1061 -0.06539v-0.86922a0.1061 0.065391 0 0 1 0.1061 -0.06539" display="block"/>
 </g>
 <path transform="matrix(.96242 0 0 1.0114 -7.1308 -7.9032)" d="m40.659 37.968a16.529 3.9333 0 1 1 -33.057 0 16.529 3.9333 0 1 1 33.057 0z" fill="url(#h)" fill-rule="evenodd" opacity=".17112"/>
 <path transform="matrix(-.64328 0 0 .64328 30.498 3.9778)" d="m18.628 3.1436c-8.1391 0-14.745 6.6057-14.745 14.745s6.6057 14.745 14.745 14.745c3.4796 0 6.551-1.3844 9.0737-3.4026-0.20538 1.0069-0.07803 2.0354 0.75614 2.7599l10.964 9.5274c1.2334 1.0713 3.0875 0.93096 4.1588-0.30246s0.93096-3.0875-0.30246-4.1588l-10.964-9.5274c-0.67153-0.58328-1.4929-0.75597-2.3062-0.64272 1.9867-2.5124 3.3648-5.5488 3.3648-8.9981 0-8.1391-6.6057-14.745-14.745-14.745zm-0.07562 1.2262c7.6395 0 13.292 4.789 13.292 13.292 0 8.6751-5.8167 13.292-13.292 13.292-7.303 0-13.292-5.4781-13.292-13.292 0-7.9841 5.8246-13.292 13.292-13.292z" fill="#dcdcdc" fill-rule="evenodd" stroke="url(#q)" stroke-linecap="round" stroke-miterlimit="10" stroke-width="3.1091"/>
 <path transform="matrix(-.64328 0 0 .64328 30.498 3.9778)" d="m18.603 3.0804c-8.1654 0-14.792 6.627-14.792 14.792s6.627 14.792 14.792 14.792c3.4908 0 6.5722-1.3889 9.1031-3.4136-0.20604 1.0101-0.07829 2.042 0.75859 2.7688l11 9.5582c1.2374 1.0748 3.0974 0.93397 4.1722-0.30344s0.93397-3.0974-0.30344-4.1722l-11-9.5582c-0.6737-0.58516-1.4977-0.75841-2.3137-0.6448 1.9931-2.5205 3.3757-5.5667 3.3757-9.0272 0-8.1654-6.627-14.792-14.792-14.792zm-0.07586 3.1861c6.2811 0 11.379 5.0977 11.379 11.379s-5.0977 11.379-11.379 11.379-11.379-5.0977-11.379-11.379 5.0977-11.379 11.379-11.379z" fill="#dcdcdc" fill-rule="evenodd"/>
 <path transform="matrix(-.64328 0 0 .64328 30.498 3.9778)" d="m39.507 41.578c-0.47867-2.2732 1.3973-4.8114 3.584-4.7884l-10.76-9.2581c-2.9448-0.05671-4.2695 2.2726-3.7768 4.5999l10.953 9.4466z" fill="url(#p)" fill-rule="evenodd"/>
 <path transform="matrix(-.80136 0 0 .80136 32.701 .00428)" d="m28.549 18.92a11.049 11.049 0 1 1 -22.097 0 11.049 11.049 0 1 1 22.097 0z" fill="none" stroke="url(#o)" stroke-linecap="round" stroke-miterlimit="10" stroke-width="1.2479"/>
 <path transform="matrix(-.48438 .4233 .41742 .48945 30.498 3.9778)" d="m43.695 0.14086h12.405a3.3215 2.2202 0 0 1 3.3215 2.2202 3.3215 2.2202 0 0 1 -3.3215 2.2202h-12.405a3.3215 2.2202 0 0 1 -3.3215 -2.2202 3.3215 2.2202 0 0 1 3.3215 -2.2202" fill="none" opacity=".43316" stroke="#fff" stroke-linecap="round" stroke-miterlimit="10" stroke-width="1.5546"/>
 <path transform="matrix(-.8997 0 0 .8997 34.502 -1.3607)" d="m25.898 18.478a8.3085 8.3085 0 1 1 -16.617 0 8.3085 8.3085 0 1 1 16.617 0z" fill="url(#e)" fill-rule="evenodd" stroke="#3063a3" stroke-linecap="round" stroke-miterlimit="10" stroke-width="1.1115"/>
 <path transform="matrix(.64328 0 0 .64328 6.8556 3.9778)" d="m18.157 7.3967c-5.2076 0-9.4246 4.217-9.4246 9.4246 0 1.504 0.42031 2.8878 1.0472 4.1499 1.2524 0.46161 2.5828 0.77568 3.9948 0.77568 6.171 0 11.099-4.8616 11.48-10.937-1.731-2.0455-4.21-3.413-7.0975-3.413z" fill="url(#d)" fill-rule="evenodd" opacity=".83422"/>
 <path transform="matrix(.61661 0 0 .29358 12.738 29.128)" d="m43.125 40.438a19.562 6.8125 0 1 1 -39.125 0 19.562 6.8125 0 1 1 39.125 0z" fill="url(#g)" fill-rule="evenodd" opacity=".2"/>
 <path transform="matrix(1.0337 -.27698 .27698 1.0337 -9.4273 13.334)" d="m17.341 32.5 5.625-5.625 20.094-9.75c3.25-1.25 5.1875 3.375 2.3125 5l-20.031 9.375-8 1z" fill="#cb9022" fill-rule="evenodd" stroke="#5c410c" stroke-width=".93444"/>
 <path transform="matrix(1.0337 -.27698 .27698 1.0337 -9.4273 13.334)" d="m38.331 20s1.4375 0.09375 2 1.3438c0.57949 1.2878 0 2.6562 0 2.6562l5.0312-2.4688s1.452-0.88137 0.65625-2.8438c-0.78491-1.9356-2.6875-1.1562-2.6875-1.1562l-5 2.4688z" fill="url(#t)" fill-rule="evenodd"/>
 <path transform="matrix(1.0337 -.27698 .27698 1.0337 -9.4273 13.334)" d="m38.331 20s1.4375 0.09375 2 1.3438c0.57949 1.2878 0 2.6562 0 2.6562l2-1s0.82703-1.3189 0.21875-2.6875c-0.625-1.4062-2.2188-1.3125-2.2188-1.3125l-2 1z" fill="url(#s)" fill-rule="evenodd"/>
 <path transform="matrix(1.0337 -.27698 .27698 1.0337 -9.4273 13.334)" d="m18.768 31.781 4.5-4.5c1.5 0.8125 2.2812 2.1562 1.875 3.7188l-6.375 0.78125z" fill="url(#f)" fill-rule="evenodd"/>
 <path transform="matrix(1.0337 -.27698 .27698 1.0337 -9.4273 13.334)" d="m20.112 30.375-1.625 1.5938 2.3438-0.3125c0.21875-0.71875-0.1875-1.0625-0.71875-1.2812z" fill="url(#r)" fill-rule="evenodd"/>
 <path transform="matrix(1.0337 -.27698 .27698 1.0337 -9.4273 13.334)" d="m23.268 27.25 1.5625 1.25 15.387-7.3187c-0.44443-0.85604-1.2418-1.0846-1.9034-1.1623l-15.046 7.2309z" fill="#fff" fill-opacity=".36364" fill-rule="evenodd"/>
 <path transform="matrix(1.0337 -.27698 .27698 1.0337 -9.4273 13.334)" d="m25.143 31.062 0.1875-0.75 15.231-7.1296s-0.11016 0.61363-0.21588 0.74935l-15.203 7.1302z" fill-opacity=".36364" fill-rule="evenodd"/>
</svg>
